# File created by Blade
# Date/Time:  Tue Jan 27 19:54:32 2015
#---------------------------------------------------------
:version 1.10
:name HOM
:units
  mass 1.0
  length 1.000000
  angle deg
:documentation
     Acclaim Skeleton File
:root
   axis xyz
   order TX TY TZ RX RY RZ
   position 0.000000 0.000000 0.000000
   orientation 0 0 0
:bonedata
   begin
      id 1
      name Spine_dum
      direction 0.000000 1.000000 0.000000
      length 6.116652
      axis 0.0 0.0 0.0 xyz
   end
   begin
      id 2
      name LeftUpLeg_dum
      direction 1.000000 0.000000 0.000000
      length 4.711765
      axis 0.0 0.0 0.0 xyz
   end
   begin
      id 3
      name RightUpLeg_dum
      direction -1.000000 0.000000 0.000000
      length 4.711765
      axis 0.0 0.0 0.0 xyz
   end
   begin
      id 4
      name Spine
      direction 0.000000 1.000000 0.000000
      length 0.000000
      axis 0.0 0.0 0.0 xyz
      dof rx ry rz
   end
   begin
      id 5
      name Spine_dum1
      direction 0.000000 1.000000 0.000000
      length 15.225563
      axis 0.0 0.0 0.0 xyz
   end
   begin
      id 6
      name Spine_dum2
      direction 0.000000 1.000000 0.000000
      length 8.977654
      axis 0.0 0.0 0.0 xyz
   end
   begin
      id 7
      name Spine_dum3
      direction 0.000000 1.000000 0.000000
      length 8.977654
      axis 0.0 0.0 0.0 xyz
   end
   begin
      id 8
      name Head
      direction 0.000000 1.000000 0.000000
      length 4.527550
      axis 0.0 0.0 0.0 xyz
      dof rx ry rz
   end
   begin
      id 9
      name LeftShoulder
      direction 1.000000 0.000000 0.000000
      length 7.110130
      axis 0.0 0.0 -90.0 xyz
      dof rx ry rz
   end
   begin
      id 10
      name LeftArm
      direction 1.000000 0.000000 0.000000
      length 10.398341
      axis 0.0 0.0 -90.0 xyz
      dof rx ry rz
   end
   begin
      id 11
      name LeftForeArm
      direction 1.000000 0.000000 0.000000
      length 8.888997
      axis 0.0 0.0 -90.0 xyz
      dof ry rz rx
   end
   begin
      id 12
      name LeftHand
      direction 0.000000 0.000000 0.000000
      length 0.000000
      axis 0.0 0.0 -90.0 xyz
      dof rx ry rz
   end
   begin
      id 13
      name LeftHand_dum1
      direction 0.000000 0.000000 0.000000
      length 0.000000
      axis 0.0 0.0 -90.0 xyz
   end
   begin
      id 14
      name LeftHand_dum2
      direction 1.000000 0.000000 0.000000
      length 3.937000
      axis 0.0 0.0 -90.0 xyz
   end
   begin
      id 15
      name LeftHandThumb1
      direction 0.000000 0.000000 1.000000
      length 3.937000
      axis 0.0 0.0 -90.0 xyz
      dof rx rz ry
   end
   begin
      id 16
      name RightShoulder
      direction -1.000000 0.000000 0.000000
      length 7.110130
      axis 0.0 0.0 90.0 xyz
      dof rx ry rz
   end
   begin
      id 17
      name RightArm
      direction -1.000000 0.000000 0.000000
      length 10.398341
      axis 0.0 0.0 90.0 xyz
      dof rx ry rz
   end
   begin
      id 18
      name RightForeArm
      direction -1.000000 0.000000 0.000000
      length 8.888997
      axis 0.0 0.0 90.0 xyz
      dof ry rz rx
   end
   begin
      id 19
      name RightHand
      direction 0.000000 0.000000 0.000000
      length 0.000000
      axis 0.0 0.0 90.0 xyz
      dof rx ry rz
   end
   begin
      id 20
      name RightHand_dum1
      direction 0.000000 0.000000 0.000000
      length 0.000000
      axis 0.0 0.0 90.0 xyz
   end
   begin
      id 21
      name RightHand_dum2
      direction -1.000000 0.000000 0.000000
      length 3.937000
      axis 0.0 0.0 90.0 xyz
   end
   begin
      id 22
      name RightHandThumb1
      direction 0.000000 0.000000 1.000000
      length 3.937000
      axis 0.0 0.0 90.0 xyz
      dof rx rz ry
   end
   begin
      id 23
      name LeftUpLeg
      direction 0.000000 -1.000000 0.000000
      length 15.510451
      axis 0.0 0.0 0.0 xyz
      dof rx ry rz
   end
   begin
      id 24
      name LeftLeg
      direction 0.000000 -1.000000 0.000000
      length 14.858061
      axis 0.0 0.0 0.0 xyz
      dof rx ry rz
   end
   begin
      id 25
      name LeftFoot
      direction 0.000000 -0.258819 0.965926
      length 5.128852
      axis 15.0 0.0 0.0 xyz
      dof rx ry rz
   end
   begin
      id 26
      name LeftToeBase
      direction 0.000000 0.000000 1.000000
      length 2.952750
      axis 0.0 0.0 0.0 xyz
      dof rx ry rz
   end
   begin
      id 27
      name RightUpLeg
      direction 0.000000 -1.000000 0.000000
      length 15.510451
      axis 0.0 0.0 0.0 xyz
      dof rx ry rz
   end
   begin
      id 28
      name RightLeg
      direction 0.000000 -1.000000 0.000000
      length 14.858061
      axis 0.0 0.0 0.0 xyz
      dof rx ry rz
   end
   begin
      id 29
      name RightFoot
      direction 0.000000 -0.258819 0.965926
      length 5.128852
      axis 15.0 0.0 0.0 xyz
      dof rx ry rz
   end
   begin
      id 30
      name RightToeBase
      direction 0.000000 0.000000 1.000000
      length 2.952750
      axis 0.0 0.0 0.0 xyz
      dof rx ry rz
   end
:hierarchy
   begin
      root Spine_dum LeftUpLeg_dum RightUpLeg_dum
      Spine_dum Spine
      LeftUpLeg_dum LeftUpLeg
      RightUpLeg_dum RightUpLeg
      Spine Spine_dum1 Spine_dum2 Spine_dum3
      Spine_dum1 Head
      Spine_dum2 LeftShoulder
      Spine_dum3 RightShoulder
      LeftShoulder LeftArm
      LeftArm LeftForeArm
      LeftForeArm LeftHand
      LeftHand LeftHand_dum1 LeftHand_dum2
      LeftHand_dum1 LeftHandThumb1
      RightShoulder RightArm
      RightArm RightForeArm
      RightForeArm RightHand
      RightHand RightHand_dum1 RightHand_dum2
      RightHand_dum1 RightHandThumb1
      LeftUpLeg LeftLeg
      LeftLeg LeftFoot
      LeftFoot LeftToeBase
      RightUpLeg RightLeg
      RightLeg RightFoot
      RightFoot RightToeBase
   end

# File created by Blade
# Date/Time:  Tue Jan 27 19:54:25 2015
# Frame Rate: 120.000 fps
#------------------------------------------------------
:FULLY-SPECIFIED
:DEGREES
787
root 5.576352 33.602246 0.999946 -24.171580 22.647147 -19.762783
Spine 16.317864 -6.581728 14.826975
Head 5.220779 -16.390776 10.236247
LeftShoulder -11.713661 -2.170541 29.415833
LeftArm -8.121921 31.162546 -92.283210
LeftForeArm 2.150459 0.000000 84.672880
LeftHand 23.724471 -0.000000 45.167040
LeftHandThumb1 -26.253704 0.000000 33.147579
RightShoulder -23.558909 -19.656221 -15.517935
RightArm 5.168371 -22.334860 88.278831
RightForeArm -16.806346 0.000000 25.234742
RightHand 16.199266 -0.000000 8.105890
RightHandThumb1 -24.326973 -0.000000 -32.862282
LeftUpLeg 19.023013 0.740769 14.830980
LeftLeg 5.108174 -0.000000 -0.000000
LeftFoot -15.547096 -2.006849 -15.820015
LeftToeBase 20.994866 -0.000000 -0.000000
RightUpLeg -78.540366 16.291478 10.780796
RightLeg 115.018342 -0.000000 -0.000000
RightFoot 32.686930 -16.754851 12.096358
RightToeBase 5.719350 -0.000000 -0.000000
788
root 5.589684 33.625693 1.000651 -24.430967 22.870610 -20.037146
Spine 16.443476 -7.085958 14.998901
Head 5.154811 -16.269288 10.231439
LeftShoulder -11.698288 -2.170114 29.383021
LeftArm -8.071536 31.199828 -92.289389
LeftForeArm 2.131413 -0.000000 84.530695
LeftHand 24.050717 -0.000000 44.823666
LeftHandThumb1 -26.253704 0.000000 33.147579
RightShoulder -23.568978 -19.636767 -15.482280
RightArm 5.163959 -22.133701 88.192623
RightForeArm -16.688629 -0.000000 25.400554
RightHand 16.138780 0.000000 8.372523
RightHandThumb1 -24.326973 -0.000000 -32.862282
LeftUpLeg 19.091479 0.849299 15.129522
LeftLeg 5.038895 -0.000000 -0.000000
LeftFoot -15.334828 -2.403609 -15.723930
LeftToeBase 20.997008 -0.000000 -0.000000
RightUpLeg -78.807187 16.194796 9.408143
RightLeg 115.112612 -0.000000 -0.000000
RightFoot 32.972614 -15.840401 11.654914
RightToeBase 5.953304 -0.000000 -0.000000
789
root 5.603312 33.644575 0.998568 -24.617635 23.072100 -20.249907
Spine 16.525880 -7.500480 15.125286
Head 5.074109 -16.188903 10.266084
LeftShoulder -11.680115 -2.152821 29.367566
LeftArm -7.966911 31.299169 -92.254127
LeftForeArm 2.053316 0.000000 84.394758
LeftHand 24.131970 -0.000000 44.836162
LeftHandThumb1 -26.253704 0.000000 33.147579
RightShoulder -23.620145 -19.633611 -15.442446
RightArm 5.185736 -22.029616 88.105849
RightForeArm -16.636600 -0.000000 25.476724
RightHand 16.215584 -0.000000 8.379139
RightHandThumb1 -24.326973 -0.000000 -32.862282
LeftUpLeg 19.131082 0.998027 15.383713
LeftLeg 4.954077 -0.000000 -0.000000
LeftFoot -15.108739 -2.826119 -15.757413
LeftToeBase 21.215240 -0.000000 -0.000000
RightUpLeg -79.100471 16.057696 8.152445
RightLeg 115.176603 -0.000000 -0.000000
RightFoot 33.239504 -15.067885 11.089337
RightToeBase 7.396674 -0.000000 -0.000000
790
root 5.614063 33.660277 0.994370 -24.738570 23.250210 -20.436594
Spine 16.553023 -7.858448 15.236740
Head 5.000701 -16.101842 10.299630
LeftShoulder -11.639168 -2.201718 29.363309
LeftArm -7.951066 31.382062 -92.256682
LeftForeArm 1.976524 -0.000000 84.285426
LeftHand 24.214418 -0.000000 44.899627
LeftHandThumb1 -26.253704 0.000000 33.147579
RightShoulder -23.662912 -19.640918 -15.376009
RightArm 5.181890 -21.818569 88.032369
RightForeArm -16.687980 -0.000000 25.580527
RightHand 16.208091 -0.000000 8.370241
RightHandThumb1 -24.326973 -0.000000 -32.862282
LeftUpLeg 19.116571 1.096461 15.585994
LeftLeg 4.880976 -0.000000 -0.000000
LeftFoot -14.931751 -3.162405 -15.784525
LeftToeBase 21.256768 -0.000000 -0.000000
RightUpLeg -79.432605 15.885447 7.014364
RightLeg 115.221086 -0.000000 -0.000000
RightFoot 33.467786 -14.233007 10.496259
RightToeBase 7.580944 -0.000000 -0.000000
791
root 5.621306 33.673674 0.989395 -24.830786 23.348690 -20.593720
Spine 16.583034 -8.175741 15.343726
Head 4.958201 -15.962496 10.301431
LeftShoulder -11.644093 -2.198463 29.341931
LeftArm -7.908821 31.451225 -92.223218
LeftForeArm 1.845006 -0.000000 84.199116
LeftHand 24.340316 -0.000000 44.892138
LeftHandThumb1 -26.253704 0.000000 33.147579
RightShoulder -23.625695 -19.643592 -15.354075
RightArm 5.153409 -21.580212 88.015758
RightForeArm -16.765495 -0.000000 25.652431
RightHand 16.228119 -0.000000 7.978884
RightHandThumb1 -24.326973 -0.000000 -32.862282
LeftUpLeg 19.121712 1.204575 15.776813
LeftLeg 4.809153 -0.000000 -0.000000
LeftFoot -14.775685 -3.469672 -15.799263
LeftToeBase 21.360325 -0.000000 -0.000000
RightUpLeg -79.736140 15.732317 6.040483
RightLeg 115.227258 -0.000000 -0.000000
RightFoot 33.620175 -13.619293 9.908716
RightToeBase 8.886817 -0.000000 -0.000000
